<mxfile host="app.diagrams.net" modified="2022-01-25T19:15:55.602Z" agent="5.0 (Windows NT 10.0; Win64; x64) AppleWebKit/537.36 (KHTML, like Gecko) Chrome/97.0.4692.99 Safari/537.36" etag="1yo5C6usu9hKAV-zNu53" version="16.4.7" type="github">
  <diagram id="AA4gQultASKQ6ed4tJZZ" name="Page-1">
    <mxGraphModel dx="1268" dy="729" grid="1" gridSize="10" guides="1" tooltips="1" connect="1" arrows="1" fold="1" page="1" pageScale="1" pageWidth="850" pageHeight="1100" math="0" shadow="0">
      <root>
        <mxCell id="0" />
        <mxCell id="1" parent="0" />
        <mxCell id="PkmS9PIWkpBxyQ8IvsfH-7" style="edgeStyle=orthogonalEdgeStyle;rounded=0;orthogonalLoop=1;jettySize=auto;html=1;exitX=0;exitY=0;exitDx=120;exitDy=50;exitPerimeter=0;" edge="1" parent="1" source="PkmS9PIWkpBxyQ8IvsfH-1" target="PkmS9PIWkpBxyQ8IvsfH-3">
          <mxGeometry relative="1" as="geometry" />
        </mxCell>
        <mxCell id="PkmS9PIWkpBxyQ8IvsfH-1" value="Movie" style="shape=cube;whiteSpace=wrap;html=1;boundedLbl=1;backgroundOutline=1;darkOpacity=0.05;darkOpacity2=0.1;" vertex="1" parent="1">
          <mxGeometry x="110" y="230" width="120" height="80" as="geometry" />
        </mxCell>
        <mxCell id="PkmS9PIWkpBxyQ8IvsfH-9" style="edgeStyle=orthogonalEdgeStyle;rounded=0;orthogonalLoop=1;jettySize=auto;html=1;exitX=0.8;exitY=0.8;exitDx=0;exitDy=0;exitPerimeter=0;entryX=0.75;entryY=0;entryDx=0;entryDy=0;" edge="1" parent="1" source="PkmS9PIWkpBxyQ8IvsfH-2" target="PkmS9PIWkpBxyQ8IvsfH-3">
          <mxGeometry relative="1" as="geometry" />
        </mxCell>
        <mxCell id="PkmS9PIWkpBxyQ8IvsfH-2" value="Processing&lt;br&gt;Cloud" style="ellipse;shape=cloud;whiteSpace=wrap;html=1;" vertex="1" parent="1">
          <mxGeometry x="365" y="70" width="120" height="80" as="geometry" />
        </mxCell>
        <mxCell id="PkmS9PIWkpBxyQ8IvsfH-8" style="edgeStyle=orthogonalEdgeStyle;rounded=0;orthogonalLoop=1;jettySize=auto;html=1;exitX=0.25;exitY=0;exitDx=0;exitDy=0;entryX=0.31;entryY=0.8;entryDx=0;entryDy=0;entryPerimeter=0;" edge="1" parent="1" source="PkmS9PIWkpBxyQ8IvsfH-3" target="PkmS9PIWkpBxyQ8IvsfH-2">
          <mxGeometry relative="1" as="geometry" />
        </mxCell>
        <mxCell id="PkmS9PIWkpBxyQ8IvsfH-10" style="edgeStyle=orthogonalEdgeStyle;rounded=0;orthogonalLoop=1;jettySize=auto;html=1;exitX=1;exitY=0.25;exitDx=0;exitDy=0;entryX=0;entryY=0.5;entryDx=0;entryDy=0;" edge="1" parent="1" source="PkmS9PIWkpBxyQ8IvsfH-3" target="PkmS9PIWkpBxyQ8IvsfH-6">
          <mxGeometry relative="1" as="geometry" />
        </mxCell>
        <mxCell id="PkmS9PIWkpBxyQ8IvsfH-11" style="edgeStyle=orthogonalEdgeStyle;rounded=0;orthogonalLoop=1;jettySize=auto;html=1;exitX=1;exitY=0.5;exitDx=0;exitDy=0;" edge="1" parent="1" source="PkmS9PIWkpBxyQ8IvsfH-3" target="PkmS9PIWkpBxyQ8IvsfH-5">
          <mxGeometry relative="1" as="geometry" />
        </mxCell>
        <mxCell id="PkmS9PIWkpBxyQ8IvsfH-12" style="edgeStyle=orthogonalEdgeStyle;rounded=0;orthogonalLoop=1;jettySize=auto;html=1;exitX=1;exitY=0.75;exitDx=0;exitDy=0;entryX=0;entryY=0.5;entryDx=0;entryDy=0;" edge="1" parent="1" source="PkmS9PIWkpBxyQ8IvsfH-3" target="PkmS9PIWkpBxyQ8IvsfH-4">
          <mxGeometry relative="1" as="geometry" />
        </mxCell>
        <mxCell id="PkmS9PIWkpBxyQ8IvsfH-3" value="TEXTAILOR&lt;br&gt;Edit Tool" style="rounded=1;whiteSpace=wrap;html=1;" vertex="1" parent="1">
          <mxGeometry x="305" y="220" width="235" height="120" as="geometry" />
        </mxCell>
        <mxCell id="PkmS9PIWkpBxyQ8IvsfH-4" value="Original" style="shape=trapezoid;perimeter=trapezoidPerimeter;whiteSpace=wrap;html=1;fixedSize=1;" vertex="1" parent="1">
          <mxGeometry x="650" y="310" width="120" height="60" as="geometry" />
        </mxCell>
        <mxCell id="PkmS9PIWkpBxyQ8IvsfH-5" value="Inpainted&lt;br&gt;Layer" style="shape=trapezoid;perimeter=trapezoidPerimeter;whiteSpace=wrap;html=1;fixedSize=1;" vertex="1" parent="1">
          <mxGeometry x="650" y="230" width="120" height="60" as="geometry" />
        </mxCell>
        <mxCell id="PkmS9PIWkpBxyQ8IvsfH-6" value="Edited&lt;br&gt;Layer" style="shape=trapezoid;perimeter=trapezoidPerimeter;whiteSpace=wrap;html=1;fixedSize=1;" vertex="1" parent="1">
          <mxGeometry x="650" y="160" width="120" height="60" as="geometry" />
        </mxCell>
        <mxCell id="PkmS9PIWkpBxyQ8IvsfH-13" value="Actor" style="shape=umlActor;verticalLabelPosition=bottom;verticalAlign=top;html=1;outlineConnect=0;" vertex="1" parent="1">
          <mxGeometry x="20" y="240" width="30" height="60" as="geometry" />
        </mxCell>
      </root>
    </mxGraphModel>
  </diagram>
</mxfile>
